<?xml version="1.0" encoding="UTF-8"?>
<svg id="Layer_2" data-name="Layer 2" xmlns="http://www.w3.org/2000/svg" viewBox="0 0 761.86 350">
  <defs>
    <style>
      .cls-1 {
        fill: #08228d;
      }

      .cls-2 {
        fill: #fff;
      }

      .cls-3 {
        fill: none;
        stroke: #fff;
        stroke-linejoin: round;
        stroke-width: 7px;
      }

      .cls-4 {
        fill: #f2f2f2;
      }
    </style>
  </defs>
  <g id="Layer_3" data-name="Layer 3">
    <rect class="cls-1" width="350" height="350"/>
    <rect class="cls-1" x="411.86" width="350" height="350"/>
  </g>
  <g id="Layer_2-2" data-name="Layer 2">
    <g>
      <path class="cls-3" d="M280.63,139.18c-19.08,24.27-66.85,33.55-67.77,33.76-3.22-4.71-8.63-7.79-14.77-7.79,0,0,1.52-39.99,24.8-62.75,43.51,7.56,57.74,36.79,57.74,36.79Z"/>
      <path class="cls-2" d="M254.85,302.39c-51.7-30.29-86.39-31.51-98.36-30.74-4.25.27-7.91-3.2-7.66-7.45.57-9.1,10.55-20.66,16.42-27.8,7.82-9.5-14.53-35.76-14.53-35.76-18.43-28.5-13.66-52.12-4.27-68.6,11.83-20.78,33.73-35.1,57.63-35.1,7.09,0,13.55.58,19.44,1.61-23.28,22.76-25.44,66.6-25.44,66.6-9.89,0-17.89,8-17.89,17.89s8,17.89,17.89,17.89c0,0-6.67,58.72,56.75,101.46Z"/>
      <path class="cls-3" d="M282.25,309.32c-1.44,3.27-4.97,4.84-8.31,4.26-2.32-1.19-4.56-2.39-6.74-3.61-.01-.01-.02-.01-.03-.02-4.21-2.71-8.31-5.24-12.32-7.57-63.42-42.74-56.75-101.46-56.75-101.46,4.53,0,8.67-1.69,11.82-4.47,0,0,37.5,15.47,57.95,35.49-7.26,25.7,10.82,67.03,14.17,72.62.99,1.62.87,3.25.21,4.75Z"/>
      <path class="cls-2" d="M168.91,99.67c-.06.03-.11.08-.17.11-3.14,2.22-6.9,3.36-10.74,3.06-14.32-1.12-45.91,1.46-45.99,46.04-.75,34.27-14.53,38-14.53,38-2.24-15.28-11.18-14.54-11.18-14.54-.75,22.73-9.32,40.61-40.98,35.77-31.66-4.85-33.53-42.47-33.53-42.47,8.57,10.43,46.94,13.78,46.19-10.8-.74-24.59,11.18-44.34,11.18-44.34-15.27.38-18.62,11.55-18.62,11.55.74-84.57,70.4-75.24,70.4-75.24-5.96-11.18-19-10.81-19-10.81,59.58-16.35,72.22,24.66,74.79,46.73.78,6.67-2.3,13.12-7.82,16.92Z"/>
      <path class="cls-3" d="M215.98,183.04c0,5.35-2.35,10.14-6.07,13.42-3.15,2.79-7.29,4.47-11.82,4.47-9.89,0-17.89-8.01-17.89-17.89s8-17.89,17.89-17.89c6.14,0,11.55,3.09,14.77,7.79,1.98,2.87,3.12,6.36,3.12,10.1Z"/>
      <path class="cls-2" d="M327.2,183.04l-47.95,64.86c-2.1-5.49-6.19-10.88-11.39-15.95-20.45-20.02-57.95-35.49-57.95-35.49,3.72-3.27,6.07-8.07,6.07-13.42,0-3.74-1.14-7.22-3.12-10.1.92-.21,47.11-10.85,66.19-35.12.95-1.22,1.85-2.47,2.66-3.76,0,0,13.69,5.57,24.77,21.65-10.95,14.82-80.6,27.33-80.6,27.33h101.32Z"/>
    </g>
    <g>
      <path class="cls-4" d="M476.13,100.37h-20.65l-3.14,9.5h-17.01l21.23-58.23h18.67l21.14,58.23h-17.1l-3.14-9.5ZM472.08,87.98l-6.28-18.83-6.19,18.83h12.47Z"/>
      <path class="cls-4" d="M540.76,55.32c4.6,2.45,8.14,5.88,10.61,10.28,2.48,4.41,3.72,9.44,3.72,15.11s-1.25,10.63-3.76,15.03c-2.51,4.41-6.06,7.86-10.65,10.37-4.6,2.51-9.93,3.76-15.98,3.76h-23.04v-58.23h23.04c6.11,0,11.47,1.23,16.06,3.68ZM534.6,91.7c2.7-2.59,4.05-6.25,4.05-10.98s-1.35-8.49-4.05-11.11c-2.7-2.61-6.42-3.92-11.15-3.92h-5.62v29.9h5.62c4.73,0,8.45-1.29,11.15-3.88Z"/>
      <path class="cls-4" d="M601.46,55.32c4.6,2.45,8.14,5.88,10.61,10.28,2.48,4.41,3.72,9.44,3.72,15.11s-1.25,10.63-3.76,15.03c-2.51,4.41-6.06,7.86-10.65,10.37-4.6,2.51-9.93,3.76-15.98,3.76h-23.04v-58.23h23.04c6.11,0,11.47,1.23,16.06,3.68ZM595.31,91.7c2.7-2.59,4.05-6.25,4.05-10.98s-1.35-8.49-4.05-11.11c-2.7-2.61-6.42-3.92-11.15-3.92h-5.62v29.9h5.62c4.73,0,8.45-1.29,11.15-3.88Z"/>
      <path class="cls-4" d="M638.92,51.64v33.78c0,3.14.73,5.56,2.19,7.27,1.46,1.71,3.67,2.56,6.65,2.56s5.22-.87,6.73-2.6c1.51-1.73,2.27-4.14,2.27-7.23v-33.78h16.19v33.78c0,5.34-1.13,9.9-3.39,13.67-2.26,3.77-5.33,6.61-9.21,8.51-3.88,1.9-8.19,2.85-12.93,2.85s-8.96-.95-12.68-2.85c-3.72-1.9-6.64-4.72-8.75-8.47-2.12-3.74-3.18-8.31-3.18-13.71v-33.78h16.11Z"/>
      <path class="cls-4" d="M507.27,150.75v58.23h-16.19v-32.13l-10.99,32.13h-13.54l-11.07-32.38v32.38h-16.19v-58.23h19.57l14.62,37.83,14.29-37.83h19.49Z"/>
      <path class="cls-4" d="M532.7,163.72v9.5h18.58v12.31h-18.58v10.49h21.06v12.97h-37.25v-58.23h37.25v12.97h-21.06Z"/>
      <path class="cls-4" d="M591.26,208.98l-11.56-21.47h-1.73v21.47h-16.19v-58.23h25.52c4.68,0,8.64.81,11.89,2.44,3.25,1.62,5.7,3.85,7.35,6.69,1.65,2.84,2.48,6.02,2.48,9.54,0,3.96-1.09,7.45-3.26,10.45-2.18,3-5.36,5.13-9.54,6.4l13.13,22.71h-18.09ZM577.96,176.44h8.01c2.2,0,3.85-.52,4.96-1.57,1.1-1.05,1.65-2.56,1.65-4.54,0-1.87-.57-3.34-1.69-4.42-1.13-1.07-2.77-1.61-4.91-1.61h-8.01v12.14Z"/>
      <path class="cls-4" d="M617.98,164.42c2.4-4.49,5.79-7.98,10.2-10.49,4.41-2.5,9.47-3.76,15.2-3.76,7.27,0,13.38,1.94,18.34,5.82,4.96,3.88,8.15,9.15,9.58,15.82h-17.43c-1.05-2.2-2.49-3.88-4.34-5.04-1.85-1.16-3.98-1.73-6.4-1.73-3.75,0-6.73,1.34-8.96,4.01-2.23,2.67-3.34,6.24-3.34,10.7s1.12,8.11,3.34,10.78c2.23,2.67,5.22,4.01,8.96,4.01,2.42,0,4.56-.58,6.4-1.73,1.84-1.16,3.29-2.84,4.34-5.04h17.43c-1.43,6.66-4.62,11.93-9.58,15.82-4.96,3.88-11.07,5.82-18.34,5.82-5.73,0-10.79-1.25-15.2-3.76-4.41-2.5-7.8-6-10.2-10.49-2.39-4.49-3.59-9.62-3.59-15.4s1.2-10.83,3.59-15.32Z"/>
      <path class="cls-4" d="M731.09,150.75v58.23h-16.19v-23.37h-19.74v23.37h-16.19v-58.23h16.19v21.89h19.74v-21.89h16.19Z"/>
      <path class="cls-4" d="M491.41,249.86v58.23h-16.19v-23.37h-19.74v23.37h-16.19v-58.23h16.19v21.89h19.74v-21.89h16.19Z"/>
      <path class="cls-4" d="M516.52,249.86v33.78c0,3.14.73,5.56,2.19,7.27,1.46,1.71,3.67,2.56,6.65,2.56s5.22-.87,6.73-2.6c1.51-1.73,2.27-4.14,2.27-7.23v-33.78h16.19v33.78c0,5.34-1.13,9.9-3.39,13.67-2.26,3.77-5.33,6.61-9.21,8.51s-8.19,2.85-12.93,2.85-8.96-.95-12.68-2.85c-3.72-1.9-6.64-4.72-8.75-8.47-2.12-3.74-3.18-8.31-3.18-13.71v-33.78h16.11Z"/>
      <path class="cls-4" d="M604.77,283.27c2.01,2.62,3.01,5.6,3.01,8.96,0,4.96-1.71,8.84-5.12,11.65-3.42,2.81-8.21,4.21-14.37,4.21h-28.83v-58.23h27.92c5.95,0,10.61,1.32,14,3.96,3.39,2.64,5.08,6.36,5.08,11.15,0,3.41-.9,6.26-2.68,8.55-1.79,2.29-4.17,3.84-7.14,4.67,3.41.77,6.12,2.46,8.13,5.08ZM575.65,272.99h8.18c4.07,0,6.11-1.68,6.11-5.04s-2.04-5.2-6.11-5.2h-8.18v10.24ZM591.18,289.92c0-1.76-.54-3.11-1.61-4.05-1.07-.94-2.6-1.4-4.58-1.4h-9.33v10.57h9.42c4.07,0,6.11-1.71,6.11-5.12Z"/>
    </g>
  </g>
</svg>